<svg width="440" height="78" viewBox="0 0 440 78" fill="none" xmlns="http://www.w3.org/2000/svg">
<path d="M67.1602 5.42933C68.9754 5.42933 70.488 6.85806 70.5888 8.79705V73.3958C70.5888 75.3348 69.0762 76.7635 67.1602 76.7635H52.9416C45.2777 76.7635 38.8238 71.8651 36.3028 65.0276C36.1011 64.6194 35.6978 64.3132 35.2944 64.3132C34.7902 64.3132 34.3868 64.6194 34.1852 65.0276C31.6641 71.8651 25.2103 76.7635 17.6472 76.7635H3.32776C1.41178 76.7635 0 75.3348 0 73.3958V8.79705C0 6.85806 1.41178 5.42933 3.32776 5.42933H17.6472C24.7422 5.42933 30.861 9.74022 33.6725 15.9187C34.0441 16.7352 34.3043 17.8797 35.1936 17.8797C35.6978 17.8797 36.1011 17.6755 36.3028 17.1653C38.723 10.3278 45.2777 5.42933 52.8408 5.42933H67.1602ZM44.5718 43.1885C44.9752 42.9844 45.1768 42.4741 45.076 41.9639C44.9752 41.4536 44.5718 41.1475 43.9667 41.1475H26.5212C26.017 41.1475 25.5128 41.4536 25.412 41.9639C25.3111 42.4741 25.5128 42.9844 25.9162 43.1885C29.7481 45.3316 32.6725 48.6993 34.1852 52.8834C34.3868 53.2916 34.7902 53.5978 35.2944 53.5978C35.6978 53.5978 36.1011 53.2916 36.3028 52.8834C37.8154 48.8013 40.7398 45.3316 44.5718 43.1885Z" fill="#00280A"/>
<path d="M85.6791 76.7635V5.90489H96.7851V66.7768H127.091V76.7635H85.6791Z" fill="#00280A"/>
<path d="M151.811 78C147.665 78 144.028 77.0727 140.901 75.218C137.774 73.2946 135.327 70.6499 133.56 67.284C131.861 63.8494 131.011 59.8996 131.011 55.4346V21.0198H142.533V54.4042C142.533 56.9458 143.042 59.1783 144.062 61.1017C145.082 63.0251 146.509 64.5363 148.344 65.6354C150.18 66.6658 152.287 67.181 154.666 67.181C157.113 67.181 159.254 66.6314 161.09 65.5324C162.925 64.4333 164.352 62.8877 165.372 60.8956C166.46 58.9036 167.003 56.568 167.003 53.889V21.0198H178.423V76.7635H167.513V65.8415L168.737 67.284C167.445 70.7186 165.304 73.3633 162.313 75.218C159.322 77.0727 155.822 78 151.811 78Z" fill="#00280A"/>
<path d="M187.797 76.7635V21.0198H198.809V33.0753L197.382 31.2206C198.537 27.4425 200.644 24.5918 203.703 22.6684C206.762 20.745 210.263 19.7834 214.205 19.7834C218.624 19.7834 222.532 20.9855 225.931 23.3897C229.397 25.7252 231.709 28.8507 232.864 32.7662L229.601 33.0753C231.233 28.6103 233.714 25.2787 237.045 23.0806C240.443 20.8824 244.318 19.7834 248.668 19.7834C252.475 19.7834 255.907 20.6764 258.966 22.4624C262.093 24.2484 264.574 26.7213 266.41 29.8811C268.245 33.041 269.162 36.6473 269.162 40.7001V76.7635H257.641V43.8943C257.641 41.0779 257.131 38.7081 256.111 36.7847C255.16 34.7926 253.8 33.2814 252.033 32.251C250.334 31.1519 248.328 30.6024 246.017 30.6024C243.706 30.6024 241.667 31.1519 239.9 32.251C238.132 33.2814 236.739 34.7926 235.719 36.7847C234.699 38.7768 234.19 41.1466 234.19 43.8943V76.7635H222.77V43.8943C222.77 41.0779 222.26 38.7081 221.241 36.7847C220.289 34.7926 218.929 33.2814 217.162 32.251C215.463 31.1519 213.423 30.6024 211.044 30.6024C208.733 30.6024 206.694 31.1519 204.927 32.251C203.159 33.2814 201.766 34.7926 200.746 36.7847C199.795 38.7768 199.319 41.1466 199.319 43.8943V76.7635H187.797Z" fill="#00280A"/>
<path d="M277.416 76.7635V21.0198H288.428V31.9419L287.102 30.4993C288.462 26.996 290.637 24.3514 293.628 22.5654C296.619 20.7107 300.085 19.7834 304.028 19.7834C308.106 19.7834 311.709 20.6764 314.836 22.4624C317.963 24.2484 320.41 26.7213 322.177 29.8811C323.944 33.041 324.828 36.6816 324.828 40.8032V76.7635H313.408V43.8943C313.408 41.0779 312.898 38.7081 311.879 36.7847C310.859 34.7926 309.398 33.2814 307.494 32.251C305.659 31.1519 303.552 30.6024 301.173 30.6024C298.794 30.6024 296.653 31.1519 294.749 32.251C292.914 33.2814 291.487 34.7926 290.467 36.7847C289.447 38.7768 288.937 41.1466 288.937 43.8943V76.7635H277.416Z" fill="#00280A"/>
<path d="M359.692 78C354.39 78 349.53 76.7292 345.112 74.1876C340.762 71.646 337.295 68.177 334.712 63.7807C332.129 59.3844 330.837 54.4042 330.837 48.8402C330.837 43.2074 332.129 38.2272 334.712 33.8996C337.295 29.5033 340.762 26.0687 345.112 23.5958C349.462 21.0542 354.323 19.7834 359.692 19.7834C365.13 19.7834 369.991 21.0542 374.273 23.5958C378.623 26.0687 382.056 29.5033 384.571 33.8996C387.154 38.2272 388.446 43.2074 388.446 48.8402C388.446 54.4729 387.154 59.4875 384.571 63.8838C381.988 68.2801 378.521 71.749 374.171 74.2906C369.821 76.7635 364.994 78 359.692 78ZM359.692 67.181C362.955 67.181 365.844 66.391 368.359 64.8111C370.874 63.2312 372.846 61.0674 374.273 58.3197C375.768 55.5033 376.516 52.3435 376.516 48.8402C376.516 45.3369 375.768 42.2114 374.273 39.4637C372.846 36.716 370.874 34.5522 368.359 32.9723C365.844 31.3923 362.955 30.6024 359.692 30.6024C356.498 30.6024 353.609 31.3923 351.026 32.9723C348.511 34.5522 346.505 36.716 345.01 39.4637C343.583 42.2114 342.869 45.3369 342.869 48.8402C342.869 52.3435 343.583 55.5033 345.01 58.3197C346.505 61.0674 348.511 63.2312 351.026 64.8111C353.609 66.391 356.498 67.181 359.692 67.181Z" fill="#00280A"/>
<path d="M395.616 76.7635V21.0198H406.627V32.251L405.608 30.6024C406.831 26.9617 408.803 24.3514 411.522 22.7715C414.241 21.1229 417.503 20.2985 421.31 20.2985H424.675V30.9115H419.882C416.076 30.9115 412.983 32.1136 410.604 34.5178C408.293 36.8534 407.137 40.2193 407.137 44.6156V76.7635H395.616Z" fill="#00280A"/>
<path d="M428.478 76.7635V21.0198H440V76.7635H428.478ZM428.478 13.395V0H440V13.395H428.478Z" fill="#00280A"/>
</svg>
